<svg xmlns="http://www.w3.org/2000/svg" xmlns:xlink="http://www.w3.org/1999/xlink" width="500" zoomAndPan="magnify" viewBox="0 0 375 374.999991" height="500" preserveAspectRatio="xMidYMid meet" version="1.0"><defs><clipPath id="407c725eec"><path d="M 49 56.378906 L 243 56.378906 L 243 279 L 49 279 Z M 49 56.378906 " clip-rule="nonzero"/></clipPath></defs><g clip-path="url(#407c725eec)"><path fill="#33c5f3" d="M 177.582031 56.433594 C 176.105469 63.125 175.785156 69.664062 176.277344 76.191406 L 174.644531 76.03125 L 176.277344 76.847656 C 177.417969 87.949219 180.851562 99.0625 186.078125 109.839844 C 199.628906 108.859375 212.203125 110 222.992188 113.429688 C 223.15625 117.507812 223.15625 121.757812 222.660156 126.003906 C 213.839844 122.90625 203.382812 121.433594 192.445312 121.757812 C 198.167969 131.71875 204.859375 141.355469 212.042969 150.992188 C 214.164062 153.605469 216.128906 156.382812 218.25 159.316406 C 215.152344 178.59375 213.515625 197.375 222.660156 207.816406 C 227.726562 213.863281 235.074219 216.316406 242.753906 216.648438 C 228.382812 233.460938 209.269531 244.734375 191.304688 255.1875 C 173.988281 265.148438 154.066406 272.992188 133.8125 276.746094 C 106.375 281.8125 71.101562 278.714844 55.421875 251.597656 C 37.296875 220.242188 59.011719 173.042969 104.253906 141.03125 C 122.539062 112.613281 147.847656 83.378906 177.582031 56.433594 Z M 81.871094 268.902344 C 75.007812 255.511719 71.414062 240.164062 72.234375 223.996094 C 73.050781 208.324219 78.105469 191.007812 86.441406 172.871094 C 62.433594 199.492188 53.289062 230.6875 66.1875 253.058594 C 69.953125 259.597656 75.339844 264.828125 81.871094 268.902344 Z M 81.871094 268.902344 " fill-opacity="1" fill-rule="evenodd"/></g><path fill="#749007" d="M 39.242188 270.699219 C 24.054688 244.410156 32.058594 209.128906 56.550781 176.957031 C 36.953125 205.214844 31.078125 235.589844 44.296875 258.449219 C 66.511719 296.828125 133.964844 299.453125 194.875 264.171875 C 263.964844 224.15625 280.453125 177.121094 269.351562 139.558594 C 273.269531 188.875 249.59375 208.3125 243.386719 209.292969 C 191.789062 207.496094 259.070312 105.589844 215.464844 86.316406 C 283.238281 91.382812 299.246094 141.355469 285.53125 185.777344 C 307.902344 171.074219 342.367188 182.519531 350.855469 224.328125 C 325.210938 214.367188 296.46875 225.46875 287.488281 212.078125 C 280.960938 202.117188 302.847656 183.015625 324.070312 191.996094 C 287.328125 172.398438 271.484375 218.617188 253.023438 235.925781 C 250.90625 238.378906 248.613281 240.828125 246.164062 243.28125 C 238.976562 286.554688 200.105469 318.566406 155.195312 316.113281 C 140.167969 315.296875 126.457031 310.886719 114.363281 303.699219 C 80.730469 304.679688 52.472656 293.578125 39.242188 270.699219 Z M 39.242188 270.699219 " fill-opacity="1" fill-rule="evenodd"/></svg>